<svg enable-background="new 0 0 256 256" height="512" viewBox="0 0 256 256" width="512" xmlns="http://www.w3.org/2000/svg"><g id="Layer_52"><g><g><g><path d="m178.01 2.5h-100.02c-12.353 0-22.367 10.014-22.367 22.367v206.267c0 12.353 10.014 22.367 22.367 22.367h100.02c12.353 0 22.367-10.014 22.367-22.367v-206.267c0-12.353-10.014-22.367-22.367-22.367z" fill="#5290db"/></g></g><g><g><path d="m178.011 12.698h-27.597c-3.052 0-5.805 1.824-7.014 4.647-2.645 6.179-8.69 10.171-15.4 10.171s-12.754-3.992-15.4-10.171c-1.209-2.823-3.962-4.647-7.014-4.647h-27.596c-6.721 0-12.169 5.448-12.169 12.169v206.265c0 6.721 5.448 12.169 12.169 12.169h100.02c6.721 0 12.169-5.448 12.169-12.169v-206.265c0-6.721-5.448-12.169-12.168-12.169z" fill="#edf4fc"/></g></g><g><g><path d="m178.011 12.698h-27.597c-3.052 0-5.805 1.824-7.014 4.647-2.645 6.179-8.69 10.171-15.4 10.171s-12.754-3.992-15.4-10.171c-1.209-2.823-3.962-4.647-7.014-4.647h-27.596c-6.721 0-12.169 5.448-12.169 12.169v59.633h124.358v-59.633c0-6.721-5.448-12.169-12.168-12.169z" fill="#70d6f9"/></g></g><g><g><path d="m158 56.5h-60c-3.59 0-6.5 2.91-6.5 6.5s2.91 6.5 6.5 6.5h60c3.59 0 6.5-2.91 6.5-6.5s-2.91-6.5-6.5-6.5z" fill="#fcdd86"/></g></g><g><g><path d="m104.5 56.5h-6.5c-3.59 0-6.5 2.91-6.5 6.5s2.91 6.5 6.5 6.5h6.5z" fill="#f5c84c"/></g></g><g><g><path d="m133.996 159.5h40.13c1.621 0 2.935 1.314 2.935 2.935v38.13c0 1.621-1.314 2.935-2.935 2.935h-40.13c-1.621 0-2.935-1.314-2.935-2.935v-38.13c0-1.621 1.314-2.935 2.935-2.935z" fill="#fc8c48"/></g></g><g><g><path d="m80.435 101.5h40.13c1.621 0 2.935 1.314 2.935 2.935v38.13c0 1.621-1.314 2.935-2.935 2.935h-40.13c-1.621 0-2.935-1.314-2.935-2.935v-38.13c0-1.621 1.314-2.935 2.935-2.935z" fill="#70d6f9"/></g></g><g><g><path d="m174.126 203.5c1.621 0 2.935-1.314 2.935-2.935v-11.178l-8.632-8.632c-1.146-1.146-3.004-1.146-4.15 0l-22.745 22.745z" fill="#fcdd86"/></g></g><g><g><path d="m157.854 187.18-13.425-13.425c-1.146-1.146-3.004-1.146-4.15 0l-9.218 9.218v17.592c0 1.621 1.314 2.935 2.935 2.935h7.538z" fill="#f5c84c"/></g></g><g><g><path d="m120.565 145.5c1.621 0 2.935-1.314 2.935-2.935v-11.178l-8.632-8.632c-1.146-1.146-3.004-1.146-4.15 0l-22.745 22.745z" fill="#b2e26d"/></g></g><g><g><path d="m104.293 129.18-13.425-13.425c-1.146-1.146-3.004-1.146-4.15 0l-9.218 9.218v17.592c0 1.621 1.314 2.935 2.935 2.935h7.538z" fill="#87d147"/></g></g><g><g><path d="m178.01 256h-100.02c-13.711 0-24.867-11.155-24.867-24.867v-206.266c0-13.712 11.155-24.867 24.867-24.867h100.02c13.711 0 24.867 11.155 24.867 24.867v206.266c0 13.712-11.155 24.867-24.867 24.867zm-100.02-251c-10.955 0-19.867 8.912-19.867 19.867v206.266c0 10.955 8.912 19.867 19.867 19.867h100.02c10.955 0 19.867-8.912 19.867-19.867v-206.266c0-10.955-8.912-19.867-19.867-19.867z"/></g></g><g><g><path d="m94.5 33h-10c-1.381 0-2.5-1.119-2.5-2.5s1.119-2.5 2.5-2.5h10c1.381 0 2.5 1.119 2.5 2.5s-1.119 2.5-2.5 2.5z"/></g></g><g><g><path d="m156.663 104h-20.398c-1.381 0-2.5-1.119-2.5-2.5s1.119-2.5 2.5-2.5h20.398c1.381 0 2.5 1.119 2.5 2.5s-1.119 2.5-2.5 2.5z"/></g></g><g><g><path d="m177.061 114.93h-40.796c-1.381 0-2.5-1.119-2.5-2.5s1.119-2.5 2.5-2.5h40.796c1.381 0 2.5 1.119 2.5 2.5s-1.119 2.5-2.5 2.5z"/></g></g><g><g><path d="m177.061 125.858h-40.796c-1.381 0-2.5-1.119-2.5-2.5s1.119-2.5 2.5-2.5h40.796c1.381 0 2.5 1.119 2.5 2.5s-1.119 2.5-2.5 2.5z"/></g></g><g><g><path d="m177.061 136.787h-40.796c-1.381 0-2.5-1.119-2.5-2.5s1.119-2.5 2.5-2.5h40.796c1.381 0 2.5 1.119 2.5 2.5s-1.119 2.5-2.5 2.5z"/></g></g><g><g><path d="m177.061 147.717h-40.796c-1.381 0-2.5-1.119-2.5-2.5s1.119-2.5 2.5-2.5h40.796c1.381 0 2.5 1.119 2.5 2.5s-1.119 2.5-2.5 2.5z"/></g></g><g><g><path d="m97.897 162h-20.397c-1.381 0-2.5-1.119-2.5-2.5s1.119-2.5 2.5-2.5h20.397c1.381 0 2.5 1.119 2.5 2.5s-1.119 2.5-2.5 2.5z"/></g></g><g><g><path d="m118.296 172.93h-40.796c-1.381 0-2.5-1.119-2.5-2.5s1.119-2.5 2.5-2.5h40.796c1.381 0 2.5 1.119 2.5 2.5s-1.119 2.5-2.5 2.5z"/></g></g><g><g><path d="m118.296 183.858h-40.796c-1.381 0-2.5-1.119-2.5-2.5s1.119-2.5 2.5-2.5h40.796c1.381 0 2.5 1.119 2.5 2.5s-1.119 2.5-2.5 2.5z"/></g></g><g><g><path d="m118.296 194.787h-40.796c-1.381 0-2.5-1.119-2.5-2.5s1.119-2.5 2.5-2.5h40.796c1.381 0 2.5 1.119 2.5 2.5s-1.119 2.5-2.5 2.5z"/></g></g><g><g><path d="m118.296 205.717h-40.796c-1.381 0-2.5-1.119-2.5-2.5s1.119-2.5 2.5-2.5h40.796c1.381 0 2.5 1.119 2.5 2.5s-1.119 2.5-2.5 2.5z"/></g></g><g><g><path d="m128 228.52c-.663 0-1.299-.264-1.768-.732l-6.224-6.225c-.976-.977-.976-2.56 0-3.535.976-.977 2.559-.977 3.536 0l4.456 4.456 4.456-4.456c.977-.977 2.559-.977 3.536 0 .977.976.977 2.559 0 3.535l-6.224 6.225c-.469.468-1.105.732-1.768.732z"/></g></g><g><g><path d="m45.705 213.654c-4.498-.838-8.043-4.31-8.898-8.716-.043-.221-.352-.221-.395 0-.855 4.406-4.4 7.879-8.898 8.716-.226.042-.226.345 0 .387 4.498.838 8.043 4.31 8.898 8.717.043.221.352.221.395 0 .855-4.406 4.4-7.879 8.898-8.717.226-.043.226-.345 0-.387z" fill="#f5c84c"/></g></g><g><g><path d="m218.903 27.108c-2.586-.482-4.625-2.479-5.116-5.012-.025-.127-.202-.127-.227 0-.492 2.534-2.53 4.531-5.117 5.012-.13.024-.13.198 0 .222 2.586.482 4.625 2.479 5.117 5.012.025.127.202.127.227 0 .492-2.534 2.53-4.531 5.116-5.012.129-.024.129-.198 0-.222z" fill="#fc657e"/></g></g><g><g><path d="m217.442 52.487h2.33v-2.33c0-1.744 1.413-3.157 3.157-3.157s3.157 1.413 3.157 3.157v2.33h2.329c1.744 0 3.157 1.413 3.157 3.157s-1.413 3.157-3.157 3.157h-2.329v2.33c0 1.744-1.413 3.157-3.157 3.157s-3.157-1.413-3.157-3.157v-2.33h-2.33c-1.744 0-3.157-1.413-3.157-3.157 0-1.743 1.413-3.157 3.157-3.157z" fill="#70d6f9"/></g></g><g><g><circle cx="42.721" cy="239.377" fill="#70d6f9" r="3.377"/></g></g><g><g><circle cx="213.721" cy="101.377" fill="#87d147" r="3.377"/></g></g><g><g><path d="m178.01 245.802h-100.02c-8.089 0-14.669-6.58-14.669-14.669v-206.266c0-8.089 6.581-14.669 14.669-14.669h27.596c4.053 0 7.708 2.419 9.312 6.163 2.252 5.258 7.395 8.655 13.102 8.655 5.708 0 10.851-3.397 13.101-8.654 1.605-3.745 5.26-6.164 9.313-6.164h27.597c8.088 0 14.668 6.58 14.668 14.669v206.266c0 8.089-6.58 14.669-14.669 14.669zm-100.02-230.604c-5.332 0-9.669 4.338-9.669 9.669v206.266c0 5.331 4.338 9.669 9.669 9.669h100.02c5.332 0 9.669-4.338 9.669-9.669v-206.266c0-5.331-4.337-9.669-9.668-9.669h-27.597c-2.05 0-3.901 1.229-4.717 3.132-3.039 7.099-9.985 11.687-17.697 11.687-7.711 0-14.658-4.587-17.698-11.687-.815-1.902-2.666-3.132-4.716-3.132z"/></g></g><g><g><path d="m189.625 87h-122.969c-1.381 0-2.5-1.119-2.5-2.5s1.119-2.5 2.5-2.5h122.969c1.381 0 2.5 1.119 2.5 2.5s-1.119 2.5-2.5 2.5z"/></g></g><g><g><path d="m158 72h-60c-4.962 0-9-4.037-9-9s4.038-9 9-9h60c4.962 0 9 4.037 9 9s-4.038 9-9 9zm-60-13c-2.206 0-4 1.794-4 4s1.794 4 4 4h60c2.206 0 4-1.794 4-4s-1.794-4-4-4z"/></g></g><g><g><path d="m104.5 71.375c-1.381 0-2.5-1.119-2.5-2.5v-11.562c0-1.381 1.119-2.5 2.5-2.5s2.5 1.119 2.5 2.5v11.562c0 1.381-1.119 2.5-2.5 2.5z"/></g></g><g><g><path d="m174.126 206h-40.13c-2.997 0-5.435-2.438-5.435-5.435v-38.131c0-2.997 2.438-5.435 5.435-5.435h40.13c2.997 0 5.435 2.438 5.435 5.435v38.131c0 2.998-2.438 5.435-5.435 5.435zm-40.13-44c-.24 0-.435.195-.435.435v38.131c0 .239.195.435.435.435h40.13c.24 0 .435-.195.435-.435v-38.131c0-.239-.195-.435-.435-.435z"/></g></g><g><g><path d="m120.565 148h-40.13c-2.997 0-5.435-2.438-5.435-5.436v-38.13c0-2.996 2.438-5.434 5.435-5.434h40.13c2.997 0 5.435 2.438 5.435 5.435v38.131c0 2.997-2.438 5.434-5.435 5.434zm-40.13-44c-.24 0-.435.195-.435.435v38.13c0 .24.195.436.435.436h40.13c.24 0 .435-.195.435-.435v-38.131c0-.239-.195-.435-.435-.435z"/></g></g><g><g><path d="m141.944 205.59c-.64 0-1.28-.244-1.768-.732-.977-.977-.977-2.559 0-3.535l22.334-22.334c1.026-1.026 2.391-1.592 3.843-1.592s2.817.565 3.843 1.592l8.173 8.174c.977.977.977 2.559 0 3.535-.976.977-2.56.977-3.535 0l-8.174-8.174c-.211-.211-.405-.211-.615 0l-22.335 22.334c-.486.488-1.126.732-1.766.732z"/></g></g><g><g><path d="m157.336 189.162c-.64 0-1.28-.244-1.768-.732l-12.907-12.906c-.211-.211-.405-.211-.615 0l-8.658 8.657c-.976.977-2.56.977-3.535 0-.977-.977-.977-2.56 0-3.535l8.658-8.657c1.026-1.026 2.391-1.593 3.843-1.593s2.817.566 3.843 1.593l12.906 12.906c.977.976.977 2.559 0 3.535-.487.488-1.127.732-1.767.732z"/></g></g><g><g><path d="m88.82 147.153c-.64 0-1.28-.244-1.768-.732-.977-.977-.977-2.559 0-3.535l21.898-21.898c2.119-2.119 5.566-2.118 7.686-.001l8.174 8.176c.976.977.976 2.56 0 3.535-.977.977-2.559.977-3.536 0l-8.174-8.175c-.169-.168-.445-.169-.615.001l-21.898 21.897c-.487.488-1.128.732-1.767.732z"/></g></g><g><g><path d="m103.725 131.112c-.64 0-1.28-.244-1.768-.732l-12.857-12.858c-.169-.168-.445-.169-.615.001l-8.684 8.684c-.976.977-2.56.977-3.535 0-.977-.976-.977-2.559 0-3.535l8.684-8.685c2.119-2.119 5.566-2.118 7.686-.001l12.857 12.858c.976.977.976 2.56 0 3.535-.489.489-1.129.733-1.768.733z"/></g></g></g></g></svg>