<?xml version="1.0" encoding="iso-8859-1"?>
<!-- Generator: Adobe Illustrator 19.0.0, SVG Export Plug-In . SVG Version: 6.00 Build 0)  -->
<svg version="1.1" id="Layer_1" xmlns="http://www.w3.org/2000/svg" xmlns:xlink="http://www.w3.org/1999/xlink" x="0px" y="0px"
	 viewBox="0 0 481.882 481.882" style="enable-background:new 0 0 481.882 481.882;" xml:space="preserve">
<path style="fill:#3A556A;" d="M470.438,0.301H11.445C4.819,0.301,0,5.722,0,11.746v68.668h481.882V11.746
	C481.882,5.722,476.461,0.301,470.438,0.301z"/>
<rect x="18.673" y="27.407" style="fill:#EBF0F3;" width="301.779" height="26.504"/>
<circle style="fill:#FCD462;" cx="358.4" cy="40.659" r="13.252"/>
<circle style="fill:#44C4A1;" cx="405.384" cy="40.659" r="13.252"/>
<circle style="fill:#E56353;" cx="452.367" cy="40.659" r="13.252"/>
<path style="fill:#EBF0F3;" d="M481.882,80.414v389.722c0,6.626-5.421,11.445-11.445,11.445H11.445
	C4.819,481.581,0,476.16,0,470.136V80.414H481.882z"/>
<path style="fill:#FFFFFF;" d="M481.882,80.414v372.254c0,6.626-5.421,11.445-11.445,11.445H11.445
	C4.819,464.113,0,458.692,0,452.668V80.414H481.882z"/>
<rect x="22.889" y="102.099" style="fill:#27A2DB;" width="436.104" height="146.974"/>
<rect x="22.889" y="237.628" style="fill:#2D93BA;" width="436.104" height="11.445"/>
<rect x="22.889" y="270.758" style="fill:#FCD462;" width="115.652" height="115.652"/>
<rect x="183.115" y="270.758" style="fill:#44C4A1;" width="115.652" height="115.652"/>
<rect x="343.341" y="270.758" style="fill:#E56353;" width="115.652" height="115.652"/>
<rect x="22.889" y="372.555" style="fill:#F6C358;" width="115.652" height="13.854"/>
<rect x="183.115" y="372.555" style="fill:#3EA69B;" width="115.652" height="13.854"/>
<rect x="343.341" y="372.555" style="fill:#D15241;" width="115.652" height="13.854"/>
<g>
	<rect x="22.889" y="409.299" style="fill:#EBF0F3;" width="115.652" height="9.035"/>
	<rect x="22.889" y="440.621" style="fill:#EBF0F3;" width="115.652" height="9.035"/>
	<rect x="183.115" y="409.299" style="fill:#EBF0F3;" width="115.652" height="9.035"/>
	<rect x="183.115" y="440.621" style="fill:#EBF0F3;" width="115.652" height="9.035"/>
	<rect x="343.341" y="409.299" style="fill:#EBF0F3;" width="115.652" height="9.035"/>
	<rect x="343.341" y="440.621" style="fill:#EBF0F3;" width="115.652" height="9.035"/>
</g>
<g>
</g>
<g>
</g>
<g>
</g>
<g>
</g>
<g>
</g>
<g>
</g>
<g>
</g>
<g>
</g>
<g>
</g>
<g>
</g>
<g>
</g>
<g>
</g>
<g>
</g>
<g>
</g>
<g>
</g>
</svg>
