<svg id="Layer_1" height="512" viewBox="0 0 128 128" width="512" xmlns="http://www.w3.org/2000/svg" data-name="Layer 1"><path d="m109.329 70.711v-13.422l-11.157-2.25a35.122 35.122 0 0 0 -3.678-8.857l6.3-9.489-9.487-9.493-9.489 6.3a35.122 35.122 0 0 0 -8.857-3.678l-2.25-11.157h-13.422l-2.25 11.157a35.122 35.122 0 0 0 -8.857 3.678l-9.489-6.3-9.493 9.493 6.3 9.489a35.122 35.122 0 0 0 -3.678 8.857l-11.157 2.25v13.422l11.157 2.25a35.122 35.122 0 0 0 3.678 8.857l-6.3 9.489 9.491 9.491 9.489-6.3a35.122 35.122 0 0 0 8.857 3.678l2.25 11.157h13.424l2.25-11.157a35.122 35.122 0 0 0 8.857-3.678l9.489 6.3 9.491-9.491-6.3-9.489a35.122 35.122 0 0 0 3.678-8.857zm-45.329 8.324a15.035 15.035 0 1 1 15.035-15.035 15.034 15.034 0 0 1 -15.035 15.035z" fill="#0087ff"/><path d="m64 41.628a22.372 22.372 0 1 0 22.372 22.372 22.372 22.372 0 0 0 -22.372-22.372zm0 37.407a15.035 15.035 0 1 1 15.035-15.035 15.034 15.034 0 0 1 -15.035 15.035z" fill="#84c8ff"/><g fill="#002390"><path d="m32 82.7a1.75 1.75 0 1 0 3.02-1.768 33.4 33.4 0 0 1 -3.495-8.415 1.747 1.747 0 0 0 -1.346-1.273l-9.754-1.967v-10.556l9.754-1.967a1.747 1.747 0 0 0 1.346-1.273 33.4 33.4 0 0 1 3.495-8.415 1.748 1.748 0 0 0 -.053-1.852l-5.511-8.3 7.465-7.465 8.3 5.511a1.746 1.746 0 0 0 1.852.053 33.4 33.4 0 0 1 8.415-3.495 1.747 1.747 0 0 0 1.273-1.346l1.967-9.754h10.551l1.967 9.754a1.747 1.747 0 0 0 1.273 1.346 33.4 33.4 0 0 1 8.415 3.495 1.75 1.75 0 0 0 1.766-3.013 36.888 36.888 0 0 0 -8.238-3.566l-2.038-10.1a1.749 1.749 0 0 0 -1.715-1.4h-13.42a1.749 1.749 0 0 0 -1.715 1.4l-2.038 10.096a36.825 36.825 0 0 0 -7.281 3.024l-8.594-5.71a1.748 1.748 0 0 0 -2.2.22l-9.492 9.492a1.749 1.749 0 0 0 -.22 2.2l5.71 8.594a36.825 36.825 0 0 0 -3.024 7.281l-10.1 2.038a1.749 1.749 0 0 0 -1.4 1.715v13.427a1.749 1.749 0 0 0 1.4 1.715l10.095 2.038a36.888 36.888 0 0 0 3.57 8.236z"/><path d="m109.675 55.574-10.105-2.038a36.825 36.825 0 0 0 -3.024-7.281l5.71-8.594a1.749 1.749 0 0 0 -.22-2.2l-9.492-9.492a1.75 1.75 0 0 0 -2.2-.22l-4.278 2.842a1.75 1.75 0 1 0 1.934 2.909l3.085-2.049 7.465 7.465-5.511 8.3a1.748 1.748 0 0 0 -.053 1.852 33.4 33.4 0 0 1 3.5 8.415 1.747 1.747 0 0 0 1.346 1.273l9.754 1.967v10.556l-9.754 1.967a1.747 1.747 0 0 0 -1.346 1.273 33.4 33.4 0 0 1 -3.5 8.415 1.748 1.748 0 0 0 .053 1.852l5.511 8.3-7.465 7.465-8.3-5.511a1.748 1.748 0 0 0 -1.852-.053 33.4 33.4 0 0 1 -8.415 3.5 1.747 1.747 0 0 0 -1.273 1.346l-1.967 9.754h-10.557l-1.967-9.754a1.747 1.747 0 0 0 -1.273-1.346 33.4 33.4 0 0 1 -8.415-3.5 1.751 1.751 0 0 0 -1.852.053l-8.3 5.511-7.465-7.465 1.563-2.354a1.75 1.75 0 1 0 -2.912-1.94l-2.356 3.547a1.749 1.749 0 0 0 .22 2.2l9.492 9.492a1.748 1.748 0 0 0 2.2.22l8.594-5.71a36.825 36.825 0 0 0 7.281 3.024l2.038 10.105a1.749 1.749 0 0 0 1.715 1.4h13.427a1.749 1.749 0 0 0 1.715-1.4l2.038-10.1a36.825 36.825 0 0 0 7.281-3.024l8.594 5.71a1.752 1.752 0 0 0 2.2-.22l9.492-9.492a1.749 1.749 0 0 0 .22-2.2l-5.71-8.594a36.825 36.825 0 0 0 3.024-7.281l10.105-2.038a1.749 1.749 0 0 0 1.4-1.715v-13.427a1.749 1.749 0 0 0 -1.395-1.715z"/><path d="m45.211 51.725a1.75 1.75 0 0 0 -2.376.693 24.1 24.1 0 1 0 12.723-11.018 1.75 1.75 0 1 0 1.225 3.278 20.62 20.62 0 1 1 -10.883 9.422 1.749 1.749 0 0 0 -.689-2.375z"/><path d="m50.141 48.729c.177-.162.358-.319.54-.474a1.75 1.75 0 0 0 -2.265-2.668c-.212.18-.422.363-.628.551a1.75 1.75 0 0 0 2.353 2.591z"/><path d="m64 80.785a16.741 16.741 0 0 0 5.645-.973 1.75 1.75 0 0 0 -1.177-3.3 13.3 13.3 0 1 1 4.926-3.122 1.75 1.75 0 0 0 2.475 2.475 16.785 16.785 0 1 0 -11.869 4.92z"/></g></svg>